<?xml version="1.0" standalone="no"?>
<!DOCTYPE svg PUBLIC "-//W3C//DTD SVG 20010904//EN"
 "http://www.w3.org/TR/2001/REC-SVG-20010904/DTD/svg10.dtd">
<svg version="1.0" xmlns="http://www.w3.org/2000/svg"
 width="2534.000000pt" height="2534.000000pt" viewBox="0 0 2534.000000 2534.000000"
 preserveAspectRatio="xMidYMid meet">
<metadata>
Created by potrace 1.14, written by Peter Selinger 2001-2017
</metadata>
<g transform="translate(0.000000,2534.000000) scale(0.100000,-0.100000)"
fill="#000000" stroke="none">
<path d="M7400 25279 c-1921 -127 -3689 -928 -5050 -2289 -771 -772 -1357
-1661 -1760 -2675 -312 -784 -494 -1627 -540 -2500 -14 -265 -14 -10073 0
-10330 61 -1123 336 -2165 830 -3140 632 -1247 1584 -2304 2765 -3071 409
-266 919 -528 1385 -711 686 -270 1414 -443 2155 -512 331 -31 541 -32 5630
-29 5557 4 5164 1 5595 53 1561 191 2991 829 4200 1874 187 161 610 585 771
771 941 1090 1553 2360 1808 3754 65 351 104 709 121 1106 13 305 13 9855 0
10160 -26 582 -96 1073 -231 1613 -235 937 -647 1830 -1204 2611 -268 375
-519 673 -838 995 -782 789 -1694 1390 -2727 1796 -625 246 -1255 402 -1975
490 -337 41 -69 39 -5590 41 -2871 1 -5276 -2 -5345 -7z m8415 -6467 c236 -37
475 -100 644 -169 681 -277 1204 -824 1452 -1515 61 -169 89 -291 109 -473 19
-164 20 -271 19 -3120 -1 -1622 -4 -3742 -8 -4710 l-7 -1760 -21 -58 c-90
-239 -269 -404 -525 -483 -113 -36 -306 -44 -427 -19 -105 21 -232 74 -309
128 -32 23 -859 697 -1836 1497 -977 800 -1781 1455 -1786 1455 -6 0 -809
-650 -1786 -1445 -977 -795 -1795 -1458 -1818 -1473 -161 -110 -362 -167 -545
-154 -336 24 -626 261 -733 599 l-23 73 0 5545 0 5545 28 82 c82 242 303 425
558 461 38 6 1482 9 3499 8 2685 -2 3452 -5 3515 -14z m-8760 -133 c28 -6 93
-31 145 -56 80 -39 107 -59 180 -132 101 -102 140 -170 172 -302 l23 -94 0
-1495 0 -1495 -915 0 c-702 0 -927 3 -969 13 -251 59 -440 229 -518 467 l-26
80 -2 445 c-2 556 10 682 90 960 159 554 509 1028 1001 1358 171 114 489 264
529 248 6 -2 38 2 71 9 61 14 133 12 219 -6z"/>
</g>
</svg>
